<?xml version="1.0" standalone="no"?>
<!DOCTYPE svg PUBLIC "-//W3C//DTD SVG 20010904//EN"
 "http://www.w3.org/TR/2001/REC-SVG-20010904/DTD/svg10.dtd">
<svg version="1.0" xmlns="http://www.w3.org/2000/svg"
 width="1280.000000pt" height="950.000000pt" viewBox="0 0 1280.000000 950.000000"
 preserveAspectRatio="xMidYMid meet">
<g transform="translate(0.000000,950.000000) scale(0.100000,-0.100000)"
fill="#000000" stroke="none">
<path d="M1345 8706 c-111 -35 -209 -123 -242 -218 -17 -51 -18 -171 -18
-3103 l0 -3050 22 -48 c48 -104 120 -168 234 -209 l64 -23 2175 -5 2175 -5 73
-22 c40 -11 76 -24 80 -28 7 -7 20 -870 13 -893 -4 -15 -17 -18 -171 -32 -284
-26 -517 -75 -629 -132 -92 -47 -95 -57 -41 -114 88 -91 251 -144 565 -184
428 -54 948 -54 1361 0 331 43 467 102 481 208 5 36 2 45 -24 71 -52 52 -245
100 -560 140 -84 11 -160 24 -170 30 -17 9 -18 32 -15 368 4 363 14 477 47
528 8 13 38 27 86 40 72 20 124 20 2294 25 2027 5 2224 6 2267 22 114 39 190
107 230 207 l23 56 0 3040 c0 2863 -1 3043 -17 3096 -35 113 -121 204 -220
234 -46 13 -597 15 -5047 14 -4006 0 -5004 -3 -5036 -13z m9880 -379 c33 -10
66 -25 72 -34 10 -13 13 -603 12 -2877 0 -1574 -4 -2887 -8 -2919 -4 -33 -13
-62 -22 -68 -8 -5 -1976 -9 -4891 -9 l-4878 0 -14 23 c-9 12 -22 63 -31 112
-14 80 -15 392 -12 2855 2 2511 4 2770 19 2823 9 33 21 64 27 70 6 6 48 19 94
28 77 17 367 17 4827 16 4521 -2 4748 -3 4805 -20z"/>
</g>
</svg>
